<svg xmlns="http://www.w3.org/2000/svg" xmlns:xlink="http://www.w3.org/1999/xlink" width="38px" height="16px" id="Layer_1" x="0px" y="0px" viewBox="0 0 27 12" xml:space="preserve"><g>	<g>		<g>			<path fill="#7B98B6" d="M3.15018,5.18259c0.84321,0,1.58486-0.40897,2.05809-1.0326    C4.99474,3.67368,4.87555,3.14619,4.87555,2.5913c0-0.55452,0.1213-1.08039,0.33456-1.55648C4.737,0.40992,3.99444,0,3.15018,0    C1.71902,0,0.55889,1.16018,0.55889,2.5913S1.71902,5.18259,3.15018,5.18259z"></path>		</g>		<g>			<path fill="#7B98B6" d="M4.87555,9.40868c0-1.00169,0.39318-1.9089,1.02572-2.59129H3.15018    c-1.43116,0-2.59129,1.16017-2.59129,2.59129c0,1.43116,1.16014,2.59129,2.59129,2.59129h2.7456    C5.26474,11.31791,4.87555,10.40898,4.87555,9.40868z"></path>		</g>	</g>	<g>		<g>			<path fill="#FFAC78" d="M11.65633,9.4087L11.65633,9.4087c0-1.43114,1.16017-2.59131,2.5913-2.59131l9.60218,0    c1.43114,0,2.5913,1.16017,2.5913,2.5913V9.4087c0,1.43114-1.16017,2.5913-2.5913,2.5913l-9.60218,0    C12.81649,12,11.65633,10.83983,11.65633,9.4087z M23.84981,0l-2.86674,0c-1.43114,0-2.5913,1.16016-2.5913,2.5913v0.00001    c0,1.43114,1.16017,2.5913,2.5913,2.5913l2.86674,0c1.43114,0,2.5913-1.16016,2.5913-2.5913V2.59131    C26.44112,1.16017,25.28095,0,23.84981,0z M16.83894,2.59131C16.83894,1.16017,15.67877,0,14.24764,0    s-2.59131,1.16017-2.59131,2.5913s1.16017,2.59131,2.5913,2.59131C15.67877,5.18261,16.83894,4.02245,16.83894,2.59131z"></path>			<g>				<path fill="#33475B" d="M8.69891,5.18259c0.84321,0,1.58486-0.40897,2.05809-1.0326     c-0.21353-0.47631-0.33272-1.0038-0.33272-1.55869c0-0.55452,0.1213-1.08039,0.33456-1.55648     C10.28573,0.40992,9.54313,0,8.69891,0C7.26775,0,6.10762,1.16018,6.10762,2.5913S7.26775,5.18259,8.69891,5.18259z"></path>				<path fill="#33475B" d="M10.42428,9.40868c0-1.00169,0.39318-1.9089,1.02572-2.59129H8.69891     c-1.43116,0-2.59129,1.16017-2.59129,2.59129c0,1.43116,1.16014,2.59129,2.59129,2.59129h2.7456     C10.81348,11.31791,10.42428,10.40898,10.42428,9.40868z"></path>			</g>		</g>		<circle fill="#FF7A59" cx="23.84981" cy="9.4087" r="2.5913"></circle>	</g></g></svg>