<svg xmlns="http://www.w3.org/2000/svg" xmlns:xlink="http://www.w3.org/1999/xlink" width="19px" height="16px" id="Layer_1" x="0px" y="0px" viewBox="0 0 15 12" xml:space="preserve"><g>	<g>		<path fill="#FFAC78" d="M0.10761,9.4087L0.10761,9.4087c0-1.43114,1.16017-2.59131,2.5913-2.59131l9.60218,0   c1.43114,0,2.5913,1.16017,2.5913,2.5913V9.4087c0,1.43114-1.16017,2.5913-2.5913,2.5913l-9.60218,0   C1.26777,12,0.10761,10.83983,0.10761,9.4087z M12.30109,0L9.43435,0c-1.43114,0-2.5913,1.16016-2.5913,2.5913v0.00001   c0,1.43114,1.16016,2.5913,2.5913,2.5913l2.86674,0c1.43114,0,2.5913-1.16016,2.5913-2.5913V2.59131   C14.89239,1.16017,13.73223,0,12.30109,0z M5.29022,2.59131C5.29022,1.16017,4.13005,0,2.69891,0S0.10761,1.16017,0.10761,2.5913   c0,1.43114,1.16017,2.59131,2.5913,2.59131C4.13005,5.18261,5.29022,4.02245,5.29022,2.59131z"></path>	</g>	<circle fill="#FF7A59" cx="12.30109" cy="9.4087" r="2.5913"></circle></g></svg>