<svg xmlns="http://www.w3.org/2000/svg" xmlns:xlink="http://www.w3.org/1999/xlink" width="28px" height="16px" id="Layer_1" x="0px" y="0px" viewBox="0 0 21 12" xml:space="preserve"><g>	<g>		<path fill="#FFAC78" d="M5.88196,9.4087L5.88196,9.4087c0-1.43114,1.16017-2.59131,2.5913-2.59131l9.60218,0   c1.43114,0,2.5913,1.16017,2.5913,2.5913V9.4087c0,1.43114-1.16017,2.5913-2.5913,2.5913l-9.60218,0   C7.04213,12,5.88196,10.83983,5.88196,9.4087z M18.07545,0l-2.86674,0c-1.43114,0-2.5913,1.16016-2.5913,2.5913v0.00001   c0,1.43114,1.16016,2.5913,2.5913,2.5913l2.86674,0c1.43114,0,2.5913-1.16016,2.5913-2.5913V2.59131   C20.66675,1.16017,19.50658,0,18.07545,0z M11.06458,2.59131C11.06458,1.16017,9.90441,0,8.47327,0   S5.88197,1.16017,5.88196,2.5913s1.16017,2.59131,2.5913,2.59131C9.90441,5.18261,11.06457,4.02245,11.06458,2.59131z"></path>		<g>			<path fill="#33475B" d="M2.92454,5.18259c0.84321,0,1.58486-0.40897,2.05809-1.0326    C4.76911,3.67368,4.64992,3.14619,4.64992,2.5913c0-0.55452,0.1213-1.08039,0.33456-1.55648C4.51136,0.40992,3.76877,0,2.92454,0    C1.49339,0,0.33325,1.16018,0.33325,2.5913S1.49339,5.18259,2.92454,5.18259z"></path>			<path fill="#33475B" d="M4.64992,9.40868c0-1.00169,0.39318-1.9089,1.02572-2.59129H2.92454    c-1.43116,0-2.59129,1.16017-2.59129,2.59129c0,1.43116,1.16014,2.59129,2.59129,2.59129h2.7456    C5.03911,11.31791,4.64992,10.40898,4.64992,9.40868z"></path>		</g>	</g>	<circle fill="#FF7A59" cx="18.07544" cy="9.4087" r="2.5913"></circle></g></svg>